#N canvas 632 75 629 645 10;
#X declare -lib mrpeach;
#X obj 338 30 import mrpeach;
#X obj 50 66 unpackOSC;
#X obj 50 100 routeOSC /AFF;
#X obj 50 136 routeOSC /Engaged/Bored /Excitement /Meditation /Frustration
;
#X floatatom 50 174 5 0 0 0 - - -;
#X floatatom 159 174 5 0 0 0 - - -;
#X floatatom 278 174 5 0 0 0 - - -;
#X floatatom 407 174 5 0 0 0 - - -;
#N canvas 618 408 450 300 average 0;
#X obj 36 26 inlet;
#X obj 224 30 inlet;
#X obj 35 92 expr ($f1 + $f2 * $i3)/($i3 + 1);
#X obj 129 190 outlet;
#X floatatom 129 133 5 0 0 0 - - -;
#X connect 0 0 2 0;
#X connect 1 0 2 2;
#X connect 2 0 4 0;
#X connect 4 0 3 0;
#X connect 4 0 2 1;
#X restore 50 198 pd average;
#N canvas 618 408 450 300 average 0;
#X obj 36 26 inlet;
#X obj 224 30 inlet;
#X obj 35 92 expr ($f1 + $f2 * $i3)/($i3 + 1);
#X obj 129 190 outlet;
#X floatatom 129 133 5 0 0 0 - - -;
#X connect 0 0 2 0;
#X connect 1 0 2 2;
#X connect 2 0 4 0;
#X connect 4 0 3 0;
#X connect 4 0 2 1;
#X restore 159 198 pd average;
#N canvas 618 408 450 300 average 0;
#X obj 36 26 inlet;
#X obj 224 30 inlet;
#X obj 35 92 expr ($f1 + $f2 * $i3)/($i3 + 1);
#X obj 129 190 outlet;
#X floatatom 129 133 5 0 0 0 - - -;
#X connect 0 0 2 0;
#X connect 1 0 2 2;
#X connect 2 0 4 0;
#X connect 4 0 3 0;
#X connect 4 0 2 1;
#X restore 278 198 pd average;
#N canvas 618 408 450 300 average 0;
#X obj 36 26 inlet;
#X obj 224 30 inlet;
#X obj 35 92 expr ($f1 + $f2 * $i3)/($i3 + 1);
#X obj 129 190 outlet;
#X floatatom 129 133 5 0 0 0 - - -;
#X connect 0 0 2 0;
#X connect 1 0 2 2;
#X connect 2 0 4 0;
#X connect 4 0 3 0;
#X connect 4 0 2 1;
#X restore 407 198 pd average;
#X floatatom 50 229 5 0 0 0 - - -;
#X floatatom 159 229 5 0 0 0 - - -;
#X floatatom 278 229 5 0 0 0 - - -;
#X floatatom 407 229 5 0 0 0 - - -;
#N canvas 664 226 450 300 bisect 0;
#X obj 77 89 < 0.5;
#X obj 161 89 >= 0.5;
#X obj 77 147 change;
#X obj 157 147 change;
#X obj 122 41 inlet;
#X obj 77 260 outlet;
#X obj 80 193 sel 1;
#X msg 75 216 bang;
#X msg 107 216 stop;
#X obj 154 258 outlet;
#X obj 157 191 sel 1;
#X msg 152 214 bang;
#X msg 184 214 stop;
#X connect 0 0 2 0;
#X connect 1 0 3 0;
#X connect 2 0 6 0;
#X connect 3 0 10 0;
#X connect 4 0 0 0;
#X connect 4 0 1 0;
#X connect 6 0 7 0;
#X connect 6 1 8 0;
#X connect 7 0 5 0;
#X connect 8 0 5 0;
#X connect 10 0 11 0;
#X connect 10 1 12 0;
#X connect 11 0 9 0;
#X connect 12 0 9 0;
#X restore 50 254 pd bisect;
#N canvas 695 365 450 300 trisect 0;
#X obj 77 147 change;
#X obj 299 142 change;
#X obj 122 41 inlet;
#X obj 77 89 < 0.35;
#X obj 303 84 > 0.65;
#X obj 142 88 >= 0.35;
#X obj 218 89 <= 0.65;
#X obj 221 116 t b;
#X obj 182 147 ==;
#X obj 182 181 change;
#X obj 75 240 outlet;
#X obj 78 173 sel 1;
#X msg 73 196 bang;
#X msg 105 196 stop;
#X obj 178 270 outlet;
#X obj 181 203 sel 1;
#X msg 176 226 bang;
#X msg 208 226 stop;
#X obj 303 265 outlet;
#X obj 306 198 sel 1;
#X msg 301 221 bang;
#X msg 333 221 stop;
#X connect 0 0 11 0;
#X connect 1 0 19 0;
#X connect 2 0 3 0;
#X connect 2 0 4 0;
#X connect 2 0 5 0;
#X connect 2 0 6 0;
#X connect 3 0 0 0;
#X connect 4 0 1 0;
#X connect 5 0 8 0;
#X connect 6 0 8 1;
#X connect 6 0 7 0;
#X connect 7 0 8 0;
#X connect 8 0 9 0;
#X connect 9 0 15 0;
#X connect 11 0 12 0;
#X connect 11 1 13 0;
#X connect 12 0 10 0;
#X connect 13 0 10 0;
#X connect 15 0 16 0;
#X connect 15 1 17 0;
#X connect 16 0 14 0;
#X connect 17 0 14 0;
#X connect 19 0 20 0;
#X connect 19 1 21 0;
#X connect 20 0 18 0;
#X connect 21 0 18 0;
#X restore 278 254 pd trisect;
#X obj 229 572 output~;
#N canvas 86 22 1107 717 arrays 0;
#N canvas 0 22 450 278 (subpatch) 0;
#X array AcordesR 44408 float 2;
#X coords 0 1 44408 -1 200 140 1 0 0;
#X restore 15 186 graph;
#N canvas 0 22 450 278 (subpatch) 0;
#X array MelodíaL 15094 float 2;
#X coords 0 1 15094 -1 200 140 1 0 0;
#X restore 16 353 graph;
#N canvas 0 22 450 278 (subpatch) 0;
#X array MelodíaR 15094 float 2;
#X coords 0 1 15094 -1 200 140 1 0 0;
#X restore 17 515 graph;
#N canvas 0 22 450 278 (subpatch) 0;
#X array LegattoL 31065 float 2;
#X coords 0 1 31065 -1 200 140 1 0 0;
#X restore 244 25 graph;
#N canvas 0 22 450 278 (subpatch) 0;
#X array LegattoR 31065 float 2;
#X coords 0 1 31065 -1 200 140 1 0 0;
#X restore 245 187 graph;
#N canvas 0 22 450 278 (subpatch) 0;
#X array stacattoL 1422 float 2;
#X coords 0 1 1422 -1 200 140 1 0 0;
#X restore 244 358 graph;
#N canvas 0 22 450 278 (subpatch) 0;
#X array stacattoR 1422 float 2;
#X coords 0 1 1422 -1 200 140 1 0 0;
#X restore 245 520 graph;
#N canvas 0 22 450 278 (subpatch) 0;
#X array AgudosL 23101 float 2;
#X coords 0 1 23101 -1 200 140 1 0 0;
#X restore 473 27 graph;
#N canvas 0 22 450 278 (subpatch) 0;
#X array AgudosR 23101 float 2;
#X coords 0 1 23101 -1 200 140 1 0 0;
#X restore 474 189 graph;
#N canvas 0 22 450 278 (subpatch) 0;
#X array MedioL 24187 float 2;
#X coords 0 1 24187 -1 200 140 1 0 0;
#X restore 476 358 graph;
#N canvas 0 22 450 278 (subpatch) 0;
#X array MedioR 24187 float 2;
#X coords 0 1 24187 -1 200 140 1 0 0;
#X restore 477 520 graph;
#N canvas 0 22 450 278 (subpatch) 0;
#X array ff 12608 float 2;
#X coords 0 1 12608 -1 200 140 1 0 0;
#X restore 718 29 graph;
#N canvas 0 22 450 278 (subpatch) 0;
#X array ppL 27887 float 2;
#X coords 0 1 27887 -1 200 140 1 0 0;
#X restore 719 191 graph;
#N canvas 0 22 450 278 (subpatch) 0;
#X array ppR 27887 float 2;
#X coords 0 1 27887 -1 200 140 1 0 0;
#X restore 724 359 graph;
#N canvas 0 22 450 278 (subpatch) 0;
#X array GravesL 24053 float 2;
#X coords 0 1 24053 -1 200 140 1 0 0;
#X restore 476 686 graph;
#N canvas 0 22 450 278 (subpatch) 0;
#X array GravesR 24053 float 2;
#X coords 0 1 24053 -1 200 140 1 0 0;
#X restore 477 848 graph;
#N canvas 0 22 450 278 (subpatch) 0;
#X array AcordesL 44408 float 2;
#X coords 0 1 44408 -1 200 140 1 0 0;
#X restore 17 21 graph;
#X obj 22 831 soundfiler;
#X msg 22 727 read -resize Acordes.wav AcordesL AcordesR \, read -resize
Melodía.wav MelodíaL MelodíaR \, read -resize Legatto.wav LegattoL
LegattoR \, read -resize stacatto.wav stacattoL stacattoR \, read -resize
Agudos.wav AgudosL AgudosR \, read -resize Medio.wav MedioL MedioR
\, read -resize Graves.wav GravesL GravesR \, read -resize ff.wav ff
\, read -resize pp.wav ppL ppR;
#X obj 22 687 loadbang;
#X connect 18 0 17 0;
#X connect 19 0 18 0;
#X restore 439 30 pd arrays;
#X obj 36 350 tabplay~ AcordesL;
#X obj 46 360 tabplay~ AcordesR;
#X obj 40 407 tabplay~ MelodíaL;
#X obj 50 417 tabplay~ MelodíaR;
#X obj 162 355 tabplay~ LegattoL;
#X obj 166 412 tabplay~ stacattoL;
#X obj 176 422 tabplay~ stacattoR;
#X obj 288 353 tabplay~ AgudosL;
#X obj 298 363 tabplay~ AgudosR;
#X obj 292 410 tabplay~ MedioL;
#X obj 302 420 tabplay~ MedioR;
#X obj 296 458 tabplay~ GravesL;
#X obj 306 468 tabplay~ GravesR;
#X obj 415 353 tabplay~ ff;
#X obj 419 410 tabplay~ ppL;
#X obj 429 420 tabplay~ ppR;
#X obj 229 537 +~;
#X obj 287 538 +~;
#N canvas 664 226 450 300 bisect 0;
#X obj 77 89 < 0.5;
#X obj 161 89 >= 0.5;
#X obj 77 147 change;
#X obj 157 147 change;
#X obj 122 41 inlet;
#X obj 77 260 outlet;
#X obj 80 193 sel 1;
#X msg 75 216 bang;
#X msg 107 216 stop;
#X obj 154 258 outlet;
#X obj 157 191 sel 1;
#X msg 152 214 bang;
#X msg 184 214 stop;
#X connect 0 0 2 0;
#X connect 1 0 3 0;
#X connect 2 0 6 0;
#X connect 3 0 10 0;
#X connect 4 0 0 0;
#X connect 4 0 1 0;
#X connect 6 0 7 0;
#X connect 6 1 8 0;
#X connect 7 0 5 0;
#X connect 8 0 5 0;
#X connect 10 0 11 0;
#X connect 10 1 12 0;
#X connect 11 0 9 0;
#X connect 12 0 9 0;
#X restore 157 257 pd bisect;
#N canvas 664 226 450 300 bisect 0;
#X obj 77 89 < 0.5;
#X obj 161 89 >= 0.5;
#X obj 77 147 change;
#X obj 157 147 change;
#X obj 122 41 inlet;
#X obj 77 260 outlet;
#X obj 80 193 sel 1;
#X msg 75 216 bang;
#X msg 107 216 stop;
#X obj 154 258 outlet;
#X obj 157 191 sel 1;
#X msg 152 214 bang;
#X msg 184 214 stop;
#X connect 0 0 2 0;
#X connect 1 0 3 0;
#X connect 2 0 6 0;
#X connect 3 0 10 0;
#X connect 4 0 0 0;
#X connect 4 0 1 0;
#X connect 6 0 7 0;
#X connect 6 1 8 0;
#X connect 7 0 5 0;
#X connect 8 0 5 0;
#X connect 10 0 11 0;
#X connect 10 1 12 0;
#X connect 11 0 9 0;
#X connect 12 0 9 0;
#X restore 407 259 pd bisect;
#X obj 172 365 tabplay~ LegattoR;
#X floatatom 495 182 5 0 0 0 - - -;
#X msg 495 157 50;
#X obj 495 134 loadbang;
#X obj 50 36 udpreceive 7400;
#X connect 1 0 2 0;
#X connect 2 0 3 0;
#X connect 3 0 4 0;
#X connect 3 1 5 0;
#X connect 3 2 6 0;
#X connect 3 3 7 0;
#X connect 4 0 8 0;
#X connect 5 0 9 0;
#X connect 6 0 10 0;
#X connect 7 0 11 0;
#X connect 8 0 12 0;
#X connect 9 0 13 0;
#X connect 10 0 14 0;
#X connect 11 0 15 0;
#X connect 12 0 16 0;
#X connect 13 0 38 0;
#X connect 14 0 17 0;
#X connect 15 0 39 0;
#X connect 16 0 20 0;
#X connect 16 0 21 0;
#X connect 16 1 22 0;
#X connect 16 1 23 0;
#X connect 17 0 27 0;
#X connect 17 0 28 0;
#X connect 17 1 29 0;
#X connect 17 1 30 0;
#X connect 17 2 31 0;
#X connect 17 2 32 0;
#X connect 20 0 36 0;
#X connect 21 0 37 0;
#X connect 22 0 36 0;
#X connect 23 0 37 0;
#X connect 24 0 36 0;
#X connect 25 0 36 0;
#X connect 26 0 37 0;
#X connect 27 0 36 0;
#X connect 28 0 37 0;
#X connect 29 0 36 0;
#X connect 30 0 37 0;
#X connect 31 0 36 0;
#X connect 32 0 37 0;
#X connect 33 0 36 0;
#X connect 33 0 37 0;
#X connect 34 0 36 0;
#X connect 35 0 37 0;
#X connect 36 0 18 0;
#X connect 37 0 18 1;
#X connect 38 0 24 0;
#X connect 38 0 40 0;
#X connect 38 1 25 0;
#X connect 38 1 26 0;
#X connect 39 0 33 0;
#X connect 39 1 34 0;
#X connect 39 1 35 0;
#X connect 40 0 37 0;
#X connect 41 0 8 1;
#X connect 41 0 9 1;
#X connect 41 0 10 1;
#X connect 41 0 11 1;
#X connect 42 0 41 0;
#X connect 43 0 42 0;
#X connect 44 0 1 0;
